<svg xmlns="http://www.w3.org/2000/svg" width="800" height="200" viewBox="0 0 800 200">
  <rect width="800" height="200" fill="#0a0a1a"/>
  <rect x="20" y="20" width="760" height="40" rx="8" fill="#0e1525" stroke="#ffffff0d" stroke-width="1"/>
  <text x="40" y="46" fill="#666" font-family="sans-serif" font-size="13">Variety</text>
  <text x="200" y="46" fill="#666" font-family="sans-serif" font-size="13">Type</text>
  <text x="320" y="46" fill="#666" font-family="sans-serif" font-size="13">Qty</text>
  <text x="420" y="46" fill="#666" font-family="sans-serif" font-size="13">Buyer</text>
  <text x="580" y="46" fill="#666" font-family="sans-serif" font-size="13">Date</text>
  <text x="700" y="46" fill="#666" font-family="sans-serif" font-size="13">Status</text>
  <rect x="20" y="70" width="760" height="40" rx="0" fill="#0e152508"/>
  <text x="40" y="96" fill="#fff" font-family="sans-serif" font-size="13">Freedom</text>
  <text x="200" y="96" fill="#888" font-family="sans-serif" font-size="13">bonche</text>
  <text x="320" y="96" fill="#22d3ee" font-family="monospace" font-size="13">×5</text>
  <text x="420" y="96" fill="#888" font-family="sans-serif" font-size="13">Miami Flowers</text>
  <text x="580" y="96" fill="#888" font-family="sans-serif" font-size="13">Mar 25, 2026</text>
  <rect x="690" y="82" width="60" height="24" rx="12" fill="#4ade8020" stroke="#4ade8040" stroke-width="1"/>
  <text x="720" y="99" text-anchor="middle" fill="#4ade80" font-family="sans-serif" font-size="11">Paid</text>
  <rect x="20" y="120" width="760" height="40" rx="0" fill="#0e152510"/>
  <text x="40" y="146" fill="#fff" font-family="sans-serif" font-size="13">Vendela</text>
  <text x="200" y="146" fill="#888" font-family="sans-serif" font-size="13">bouquet</text>
  <text x="320" y="146" fill="#22d3ee" font-family="monospace" font-size="13">×12</text>
  <text x="420" y="146" fill="#888" font-family="sans-serif" font-size="13">Rose Co.</text>
  <text x="580" y="146" fill="#888" font-family="sans-serif" font-size="13">Mar 24, 2026</text>
  <rect x="690" y="132" width="70" height="24" rx="12" fill="#f59e0b20" stroke="#f59e0b40" stroke-width="1"/>
  <text x="725" y="149" text-anchor="middle" fill="#f59e0b" font-family="sans-serif" font-size="11">Pending</text>
</svg>